<svg version="1.1" id="Layer_1" xmlns="http://www.w3.org/2000/svg" xmlns:xlink="http://www.w3.org/1999/xlink" x="0px" y="0px"
	 width="100%" viewBox="0 0 1024 1024" enable-background="new 0 0 1024 1024" xml:space="preserve">
<path fill="#000000" opacity="1.000000" stroke="none" 
	d="
M598.519531,573.489624 
	C605.375854,555.075256 607.908875,536.496155 605.476440,516.804321 
	C604.277588,525.378967 606.549500,533.927368 602.455750,542.683105 
	C592.236572,502.031464 567.958862,475.936371 526.714783,471.846283 
	C473.897156,466.608551 439.603210,491.331604 425.658264,544.691223 
	C423.531464,536.229370 423.163940,529.177002 423.721802,522.146118 
	C424.952087,506.641418 427.822937,491.499542 434.567688,477.286377 
	C436.312592,473.609375 438.490570,470.450745 441.504150,467.669830 
	C462.993042,447.839905 488.452545,438.038971 517.523071,438.901306 
	C545.643860,439.735413 569.756409,450.970612 590.175598,470.183838 
	C592.093567,471.988525 593.448242,474.281647 594.382385,476.882690 
	C595.238403,479.266052 595.793762,481.950531 598.424011,484.363953 
	C598.522156,480.430359 596.906982,477.739349 595.771057,475.002411 
	C587.736145,455.642456 575.428162,438.707916 564.649109,420.927765 
	C543.652649,386.293732 527.768127,349.740265 521.029907,309.582916 
	C517.865173,290.721893 516.289978,271.667480 514.600891,252.379395 
	C512.039368,272.347870 510.426880,292.178741 506.904572,311.789886 
	C499.488342,353.081329 482.811279,390.521637 460.666779,425.826660 
	C451.464294,440.498199 441.909485,455.000580 434.423645,470.665833 
	C426.148193,487.983490 422.016449,506.128052 421.689331,525.541321 
	C421.412750,541.957275 423.153046,557.738892 429.046173,572.931824 
	C434.721680,587.563660 443.278839,600.398193 455.170441,610.852722 
	C456.384277,611.919861 457.845642,612.844055 458.435486,614.583435 
	C457.044495,616.113464 455.997772,614.614075 455.042664,614.096680 
	C430.370209,600.730286 411.549438,581.342346 397.229401,557.434937 
	C393.384552,551.015991 392.389191,543.584717 391.787781,536.345642 
	C389.787109,512.263855 393.710449,488.984192 402.134155,466.376831 
	C410.156372,444.846924 421.802124,425.235321 433.894073,405.864594 
	C449.242096,381.277832 465.164368,357.029938 477.052948,330.464050 
	C482.022644,319.358948 486.547668,308.088013 490.113312,296.445953 
	C490.543945,295.039917 491.203125,293.649689 489.444916,290.888519 
	C465.152771,329.805511 430.173248,359.018250 402.746490,395.196533 
	C413.963196,395.898163 424.740479,395.948273 435.181793,394.702179 
	C436.330627,396.847626 435.341125,397.897583 434.570190,398.939667 
	C428.810638,406.724823 423.846436,415.019043 419.105408,423.438049 
	C417.602966,426.106140 415.706848,427.205780 412.726166,427.246124 
	C404.903351,427.351959 397.087036,427.490997 389.264526,428.023346 
	C384.921234,428.318970 382.719208,429.897736 381.207367,433.847809 
	C375.732391,448.152710 370.487000,462.555450 364.094940,476.493530 
	C363.621979,477.524902 363.033020,478.503113 362.547333,479.413483 
	C360.345551,479.485565 360.425903,477.708252 359.989594,476.657410 
	C355.009583,464.662628 350.153107,452.616577 345.196381,440.612000 
	C343.973419,437.650085 344.208801,435.029114 345.454712,432.009735 
	C358.469971,400.468231 378.319885,373.443451 400.604523,348.008667 
	C420.170471,325.676910 441.818085,305.353058 462.521545,284.122955 
	C487.943176,258.054565 501.648682,226.733917 506.742310,191.094040 
	C508.398651,179.504700 510.331818,167.925827 513.687927,156.497833 
	C516.486511,162.228210 517.175415,168.415436 518.293396,174.462982 
	C522.340637,196.355469 525.664368,218.398712 534.809509,239.014862 
	C544.464600,260.780640 559.858093,278.158997 576.380188,294.778351 
	C597.166199,315.686676 618.692261,335.886627 637.580078,358.621643 
	C655.098999,379.708923 670.892212,401.873413 681.996460,427.141327 
	C684.452759,432.730804 684.731750,437.631409 682.184631,443.321198 
	C678.109253,452.424652 674.828979,461.884338 671.219421,471.196075 
	C670.156982,473.936859 669.302185,476.779144 667.237976,479.522583 
	C664.630615,476.449219 663.334412,473.043152 661.983765,469.748108 
	C656.995850,457.579285 652.083862,445.377563 647.332520,433.114868 
	C646.026306,429.743591 644.188477,428.365753 640.421204,428.040558 
	C632.268005,427.336792 624.115295,427.361206 615.962646,427.187958 
	C612.424927,427.112762 610.102112,425.854370 608.431763,422.612518 
	C603.488464,413.018585 597.621094,403.965485 590.492432,394.240875 
	C602.758850,394.352020 613.845764,396.617401 624.900513,395.573151 
	C626.145081,392.653198 624.072266,391.255249 622.802795,389.676422 
	C610.671692,374.588593 596.906494,360.990295 583.686462,346.895111 
	C567.353943,329.481323 552.539612,310.849854 538.943604,291.236877 
	C538.194519,290.156281 537.356934,289.136993 535.792419,287.078461 
	C540.023376,305.136230 546.432922,321.076813 553.713501,336.687744 
	C564.805664,360.471497 579.369446,382.226440 593.290649,404.370483 
	C606.058716,424.680206 618.446777,445.235321 626.788025,467.904175 
	C634.639587,489.242432 638.465393,511.244476 637.193420,533.975464 
	C636.520691,545.996765 632.564087,556.785034 625.162048,566.665771 
	C611.747437,584.572571 597.005737,600.868408 577.401978,612.176453 
	C574.730042,613.717712 572.158813,615.540405 568.530212,615.431152 
	C581.482422,603.618835 591.827332,590.073730 598.519531,573.489624 
z"/>
<path fill="#000000" opacity="1.000000" stroke="none" 
	d="
M530.892395,710.963013 
	C539.684143,694.313232 550.707458,679.733398 563.285095,666.293030 
	C567.363953,661.934387 572.821655,659.630981 577.990906,656.981567 
	C594.808044,648.362305 610.801758,638.542786 624.894958,625.823364 
	C627.915466,623.097290 631.761536,621.798828 635.531616,620.446960 
	C664.118164,610.197388 693.641479,606.294006 723.879150,607.858643 
	C734.487976,608.407715 745.024536,610.041809 755.766052,612.078735 
	C755.522644,610.206665 754.155701,609.451660 753.189270,608.542053 
	C727.644653,584.499207 710.000122,555.009888 694.711487,523.887085 
	C693.873291,522.180725 693.369995,520.481018 694.039917,518.607666 
	C698.859131,505.131012 703.196411,491.500183 707.161255,477.748657 
	C707.370178,477.024139 707.918701,476.397552 708.628906,475.174805 
	C712.764282,483.043274 715.374878,490.926880 718.529663,498.572876 
	C730.033569,526.453613 741.446228,554.388733 758.534851,579.500244 
	C776.662476,606.138611 798.920715,628.143494 828.714294,641.635986 
	C829.837585,642.144592 831.300781,642.365051 831.999695,644.152710 
	C828.580444,645.165039 825.437500,643.768921 822.381104,643.193604 
	C804.106384,639.753601 785.899048,635.835632 767.424500,633.685425 
	C750.870361,631.758789 734.239563,631.819397 717.572388,633.102844 
	C696.890747,634.695435 676.698730,638.456543 657.095215,645.172852 
	C597.388123,665.628967 556.113953,705.106750 534.956482,764.806580 
	C526.711975,788.070190 522.990967,812.448181 519.315430,836.780457 
	C518.038818,845.231201 516.382324,853.624512 514.304749,862.045776 
	C511.674896,857.814636 511.551453,853.073181 510.706604,848.559204 
	C506.309113,825.064514 503.679565,801.225525 497.281097,778.121643 
	C479.540680,714.063599 439.021515,670.846741 377.080688,647.494263 
	C343.554047,634.854370 308.654083,630.652771 273.080139,632.542969 
	C253.317703,633.593079 233.939377,637.998230 214.527664,641.778320 
	C208.608063,642.931091 202.636597,643.817749 196.369965,644.880371 
	C196.995575,642.186890 198.871796,641.969116 200.284546,641.325317 
	C232.495010,626.646240 256.048065,602.488708 274.807739,573.145691 
	C291.763336,546.624634 304.024231,517.821167 315.499939,488.648682 
	C317.232605,484.244080 319.053864,479.874329 321.394867,474.107025 
	C324.295685,483.994202 326.746674,492.364288 329.209778,500.730774 
	C329.726074,502.484619 330.008667,504.378357 330.871857,505.947479 
	C336.673401,516.493469 334.538818,525.875977 328.947601,536.208801 
	C314.978210,562.024841 299.056213,586.239807 277.985443,606.849243 
	C276.948578,607.863464 275.535217,608.635376 275.181183,610.301941 
	C276.336456,612.224609 277.979401,611.422119 279.572540,611.144165 
	C318.224243,604.399048 356.096985,607.322693 393.161102,620.306641 
	C397.425842,621.800537 401.596008,623.446045 405.056335,626.471924 
	C419.953613,639.498901 436.835388,649.510925 454.209808,658.760742 
	C459.875305,661.776917 464.709595,665.736267 468.964050,670.532288 
	C488.342468,692.377441 503.116913,716.848755 511.737732,744.878906 
	C512.370422,746.936096 513.302490,748.901062 514.390259,751.655640 
	C518.895935,737.375061 523.857178,723.934814 530.892395,710.963013 
z"/>
<path fill="#000000" opacity="1.000000" stroke="none" 
	d="
M229.628616,614.705933 
	C227.680145,615.993530 226.027115,617.071350 224.462509,618.091553 
	C221.920273,616.884338 221.427917,614.662415 220.794250,612.674072 
	C213.504227,589.800598 208.794296,566.428223 206.550156,542.496826 
	C204.882065,524.708374 204.276794,506.947601 205.788406,489.158173 
	C209.043869,450.846313 218.030884,413.993011 235.520142,379.598511 
	C274.360474,303.214874 333.823212,249.990204 414.904266,221.522125 
	C439.652985,212.832687 465.320312,208.175507 491.435913,205.992950 
	C496.680939,205.554611 497.591949,206.543793 496.290375,211.395630 
	C492.179871,226.717911 485.773071,240.839447 474.593689,252.453583 
	C471.132507,256.049316 467.091675,258.291595 462.202332,259.447540 
	C437.969940,265.176544 414.636475,273.363556 392.562012,285.033051 
	C359.313171,302.609772 331.621735,326.769745 308.754547,356.407501 
	C303.088135,363.751678 295.708527,365.854095 287.609467,366.777466 
	C284.445343,367.138184 283.503052,368.004272 283.449707,370.751251 
	C283.439972,371.250854 283.337402,371.757172 283.390228,372.248260 
	C284.819641,385.533997 280.199890,397.257111 274.824463,409.090027 
	C263.733215,433.505219 257.297272,459.196472 255.172256,486.015167 
	C253.124557,511.858337 254.010757,537.546448 258.196686,563.088562 
	C260.169403,575.126099 255.378021,584.901123 249.149384,594.360596 
	C243.974060,602.220215 237.574890,608.970520 229.628616,614.705933 
z"/>
<path fill="#000000" opacity="1.000000" stroke="none" 
	d="
M639.167603,286.889526 
	C616.653503,274.539856 593.019714,266.176910 568.454590,260.409332 
	C560.911743,258.638336 555.117737,254.751480 550.491150,248.692856 
	C541.655579,237.122604 535.812927,224.203659 532.376953,210.087296 
	C531.130554,204.966492 534.504456,205.734772 537.207153,205.962799 
	C555.939453,207.543228 574.506775,210.166245 592.701843,215.063477 
	C655.181396,231.879868 707.381104,264.923798 749.359863,314.158112 
	C781.118591,351.405914 803.490723,393.472504 814.801453,441.240753 
	C821.622864,470.048920 824.393982,499.279480 823.123779,528.822021 
	C821.984314,555.324341 817.490051,581.326843 809.731445,606.724060 
	C808.809875,609.740723 807.558838,612.659607 806.390869,615.596130 
	C806.097412,616.333862 805.534302,616.964417 805.181152,617.510925 
	C803.377197,618.036316 802.481079,616.827026 801.447327,616.109436 
	C791.051270,608.893005 782.502747,599.997375 775.893127,589.111511 
	C770.981995,581.023010 769.391724,572.616028 770.768066,563.320740 
	C773.424805,545.377625 774.906799,527.351501 774.778381,509.166809 
	C774.527161,473.573700 767.818848,439.356659 752.741089,407.092560 
	C746.893555,394.579773 743.331909,381.967834 744.429871,368.481384 
	C742.621582,366.663757 740.633728,367.261444 738.905090,366.980682 
	C730.310913,365.584686 723.857666,361.540619 718.338135,354.419067 
	C696.755066,326.571747 670.432983,304.062500 639.167603,286.889526 
z"/>
<path fill="#000000" opacity="1.000000" stroke="none" 
	d="
M357.142700,476.997192 
	C366.268036,500.493866 375.295654,523.658936 387.453033,545.338623 
	C404.285278,575.354675 425.190186,601.883728 456.041565,618.844360 
	C496.148254,640.893188 536.276978,640.521179 575.673889,617.229431 
	C603.939270,600.518799 624.297913,576.142395 640.111023,547.682861 
	C651.145569,527.823730 659.678650,506.853180 668.166138,485.844940 
	C678.390991,460.536591 687.688232,434.829712 700.255249,410.517242 
	C700.392151,410.252228 700.317139,409.877655 700.380310,409.022705 
	C694.722778,410.861786 689.221008,412.531921 683.809143,414.455139 
	C680.701172,415.559601 678.894958,414.744507 677.447388,411.794220 
	C674.754211,406.305115 670.635498,401.556702 668.448669,394.688690 
	C693.382568,388.132568 717.352112,379.447296 740.403809,368.764648 
	C741.798035,370.296814 740.894165,371.288544 740.417786,372.288696 
	C727.559998,399.281525 718.013794,427.473969 710.242493,456.283478 
	C698.965881,498.087830 684.715027,538.636536 661.579529,575.615295 
	C642.228088,606.545837 617.682617,632.120361 585.540710,649.849487 
	C560.750671,663.523438 534.006775,669.950073 505.806671,668.085693 
	C470.784729,665.770508 440.370026,651.660034 413.401855,629.475403 
	C386.325226,607.201538 367.264954,578.964478 351.741760,548.000977 
	C339.383179,523.349854 330.021576,497.596588 323.117065,470.909058 
	C314.102600,436.065979 302.822510,402.004608 286.532013,367.917236 
	C311.666321,378.504364 335.471344,388.819031 361.678925,394.649780 
	C357.731659,401.494537 354.239258,407.659302 350.629211,413.754364 
	C349.275635,416.039734 347.248169,415.230896 345.303497,414.548645 
	C340.318390,412.799591 335.317688,411.095062 329.624573,409.831055 
	C332.910370,421.453003 338.966888,431.804596 343.556671,442.757385 
	C348.251892,453.961884 352.535339,465.338898 357.142700,476.997192 
z"/>
<path fill="#000000" opacity="1.000000" stroke="none" 
	d="
M444.619507,815.564453 
	C414.247345,808.811096 386.045837,797.527161 359.560333,782.176270 
	C316.253723,757.075867 281.438171,723.037476 254.625244,680.779419 
	C248.818771,671.628235 243.554947,662.185852 238.937347,652.388916 
	C237.826172,650.031433 236.315521,647.726929 236.581741,644.495422 
	C241.015747,642.875732 245.718384,641.907837 250.443726,641.388855 
	C260.394775,640.296021 270.362213,640.178955 280.290588,641.916199 
	C286.417603,642.988220 290.732391,646.328918 294.246765,651.438660 
	C305.866669,668.333557 318.312622,684.582703 333.055634,698.944580 
	C369.009277,733.968689 411.287231,757.215027 460.558868,767.427124 
	C464.457733,768.235229 468.395172,769.204773 472.342621,769.352478 
	C478.891815,769.597534 483.246765,773.098206 486.702118,778.039856 
	C495.023376,789.940552 499.800720,802.997681 499.296661,817.746460 
	C499.178833,821.194580 498.218292,822.882812 494.284241,822.647705 
	C477.666656,821.654846 461.246002,819.405884 444.619507,815.564453 
z"/>
<path fill="#000000" opacity="1.000000" stroke="none" 
	d="
M642.982544,795.099976 
	C616.054932,807.625183 588.192627,815.752258 559.216248,819.971985 
	C550.679932,821.215027 542.093445,822.346313 533.408142,822.386169 
	C529.947998,822.402100 528.636780,821.126831 528.706360,817.708496 
	C529.020996,802.261169 533.559082,788.287476 542.781372,775.831238 
	C546.255737,771.138611 551.143738,769.702759 556.569336,768.874207 
	C615.538269,759.868347 664.351990,732.098877 704.615234,688.578247 
	C714.937866,677.420532 724.060364,665.296448 732.541504,652.738586 
	C737.090210,646.003540 742.689819,642.050171 750.764404,641.282959 
	C764.288208,639.997986 777.631165,640.492310 791.709412,644.567322 
	C786.542603,658.544434 779.218018,670.919983 771.401733,682.984253 
	C739.354004,732.449768 696.679016,769.819641 642.982544,795.099976 
z"/>
<path fill="#000000" opacity="1.000000" stroke="none" 
	d="
M513.125549,485.489380 
	C515.065979,483.982880 516.152283,485.117035 517.152405,486.286316 
	C533.853088,505.811249 546.469788,527.111328 546.295227,553.900269 
	C546.176392,572.132629 540.138611,588.442261 529.992554,603.377563 
	C526.245544,608.893311 522.047485,614.057068 517.694519,619.107849 
	C515.490967,621.664673 513.773621,622.109070 511.338898,619.229858 
	C497.693024,603.093140 486.730042,585.607849 484.078949,564.118530 
	C481.425903,542.613647 486.645966,522.876892 498.361877,504.761475 
	C502.711639,498.035736 507.716370,491.813232 513.125549,485.489380 
z"/>
<path fill="#000000" opacity="1.000000" stroke="none" 
	d="
M549.120300,398.989075 
	C551.540710,404.025024 553.812988,408.718262 556.085205,413.411530 
	C555.897034,413.895355 555.708801,414.379211 555.520630,414.863037 
	C527.880127,402.983551 500.241150,403.058472 473.000916,414.794617 
	C471.987610,412.226044 472.921814,411.161652 473.533112,410.047729 
	C478.656555,400.711700 483.666748,391.292236 487.593231,381.402802 
	C489.773041,375.912689 493.173798,373.368774 498.943451,372.782227 
	C510.757751,371.581299 522.482178,371.471527 534.194397,373.707855 
	C537.006958,374.244873 538.424194,375.860077 539.526611,378.320496 
	C542.581299,385.137848 545.811340,391.876617 549.120300,398.989075 
z"/>
</svg>